<?xml version="1.0" encoding="UTF-8" standalone="no"?><!DOCTYPE svg PUBLIC "-//W3C//DTD SVG 1.1//EN" "http://www.w3.org/Graphics/SVG/1.1/DTD/svg11.dtd"><svg width="100%" height="100%" viewBox="0 0 50 43" version="1.1" xmlns="http://www.w3.org/2000/svg" xmlns:xlink="http://www.w3.org/1999/xlink" xml:space="preserve" style="fill-rule:evenodd;clip-rule:evenodd;stroke-linejoin:round;stroke-miterlimit:1.41421;"><path id="telegram" d="M49.649,3.202c0,0 -7.161,35.946 -8,38c-0.839,2.054 -4,1 -4,1l-11.25,-8.75l-6.364,6.364l0.08,0.205l-0.466,0.181l-0.466,0.181l-5.953,-15.307c-1.983,-0.603 -10.61,-3.285 -12.581,-4.874c-2.23,-1.798 2,-3 2,-3c0,0 29.97,-11.859 38,-15c8.03,-3.141 9,-2 9,-2c0.602,0.953 0,3 0,3Zm-11,6l-24.435,15.644l5.435,13.356l0,-10c0,0 20.519,-18.326 21,-19c0.882,-1.236 -2,0 -2,0Z" style="fill:#00b0ff;"/></svg>