<?xml version="1.0" encoding="UTF-8" standalone="no"?><!DOCTYPE svg PUBLIC "-//W3C//DTD SVG 1.1//EN" "http://www.w3.org/Graphics/SVG/1.1/DTD/svg11.dtd"><svg width="100%" height="100%" viewBox="0 0 53 53" version="1.1" xmlns="http://www.w3.org/2000/svg" xmlns:xlink="http://www.w3.org/1999/xlink" xml:space="preserve" style="fill-rule:evenodd;clip-rule:evenodd;stroke-linejoin:round;stroke-miterlimit:1.41421;"><path id="github-" d="M33.485,51.884c-0.021,-1.394 -0.062,-9.188 -0.366,-10.454c-0.317,-1.317 -1.264,-2.322 -1.39,-2.795c-0.067,-0.25 0.053,0.368 0.062,0.097c6.638,-1.866 11.395,-6.829 11.395,-12.676c0,-3.193 -1.423,-6.122 -3.789,-8.431c0.842,-2.504 1.362,-5.808 0.264,-6.843c-1,-0.943 -5.464,1.332 -7.101,2.819c-2.022,-0.656 -4.236,-1.022 -6.56,-1.022c-2.572,0 -5.002,0.455 -7.193,1.249c-1.49,-1.374 -5.414,-4.04 -6.468,-3.046c-1.199,1.13 -1.521,5.113 -0.354,7.491c-1.99,2.199 -3.171,4.881 -3.171,7.783c0,6.104 5.177,11.253 12.274,12.912c-0.275,1.276 -2.965,4.861 -6.105,3.261c0,0 -4.752,-5.331 -6.169,-5.391c-1.418,-0.06 -2.388,0.151 -1.763,0.898c0.625,0.748 3.511,3.364 4.407,5.391c1.096,2.484 3.762,4.172 6.169,3.594c2.408,-0.577 1.763,-0.898 1.763,-0.898c0,0 0.855,4.861 -0.409,6.183c-10.945,-3.126 -18.981,-13.345 -18.981,-25.501c0,-14.638 11.641,-26.505 26,-26.505c14.359,0 26,11.867 26,26.505c0,11.985 -7.806,22.101 -18.515,25.379Z" style="fill:#00b0ff;"/></svg>