<?xml version="1.0" encoding="UTF-8" standalone="no"?><!DOCTYPE svg PUBLIC "-//W3C//DTD SVG 1.1//EN" "http://www.w3.org/Graphics/SVG/1.1/DTD/svg11.dtd"><svg width="100%" height="100%" viewBox="0 0 45 44" version="1.1" xmlns="http://www.w3.org/2000/svg" xmlns:xlink="http://www.w3.org/1999/xlink" xml:space="preserve" style="fill-rule:evenodd;clip-rule:evenodd;stroke-linejoin:round;stroke-miterlimit:1.41421;"><path id="instagram-" d="M40.48,44l-36.96,0c-1.944,0 -3.52,-1.576 -3.52,-3.52l0,-36.96c0,-1.944 1.576,-3.52 3.52,-3.52l36.96,0c1.944,0 3.52,1.576 3.52,3.52l0,36.96c0,1.944 -1.576,3.52 -3.52,3.52Zm-18.48,-29.92c-4.374,0 -7.92,3.546 -7.92,7.92c0,4.374 3.546,7.92 7.92,7.92c4.374,0 7.92,-3.546 7.92,-7.92c0,-4.374 -3.546,-7.92 -7.92,-7.92Zm17.001,-6.41c0,-1.475 -1.196,-2.671 -2.671,-2.671l-2.671,0c-1.476,0 -2.672,1.196 -2.672,2.671l0,2.671c0,1.476 1.196,2.672 2.672,2.672l2.671,0c1.475,0 2.671,-1.196 2.671,-2.672l0,-2.671Zm-0.001,10.33l-3,0c0.291,1.127 0.08,2.782 0.08,4c0,7.776 -6.304,14.08 -14.08,14.08c-7.776,0 -14.08,-6.304 -14.08,-14.08c0,-1.218 -0.211,-2.873 0.08,-4l-3,0l0,19c0,0.972 1.028,2 2,2l30,0c0.972,0 2,-1.028 2,-2l0,-19Z" style="fill:#00b0ff;"/></svg>