<?xml version="1.0" encoding="UTF-8" standalone="no"?><!DOCTYPE svg PUBLIC "-//W3C//DTD SVG 1.1//EN" "http://www.w3.org/Graphics/SVG/1.1/DTD/svg11.dtd"><svg width="100%" height="100%" viewBox="0 0 51 42" version="1.1" xmlns="http://www.w3.org/2000/svg" xmlns:xlink="http://www.w3.org/1999/xlink" xml:space="preserve" style="fill-rule:evenodd;clip-rule:evenodd;stroke-linejoin:round;stroke-miterlimit:1.41421;"><path id="twitter-" d="M45.032,7l5.034,-1c0,0 -4.218,4.743 -5.034,5c-0.008,0.003 -0.017,-0.007 -0.025,-0.006c-0.108,2.312 0.025,3.006 0.025,3.006c-9.622,41.225 -45.032,23 -45.032,23c12.883,0.339 14.032,-5 14.032,-5c-7.546,-1.139 -9,-6 -9,-6c2.565,1.167 4,-1 4,-1c-8.144,-2.103 -7,-10 -7,-10c1.36,1.243 3.584,1.716 4.908,1.895c-0.921,-1.068 -8.521,-10.18 -3.908,-14.895c0,0 5.55,9.983 20.25,10.937l0.982,-0.245c-0.15,-0.708 -0.232,-1.44 -0.232,-2.192c0,-5.799 4.701,-10.5 10.5,-10.5c6.99,0 8.5,4 8.5,4l5,-3c0,0 -0.549,5.013 -3,6Z" style="fill:#00b0ff;"/></svg>